<svg width="547" height="558" viewBox="0 0 547 558" fill="none" xmlns="http://www.w3.org/2000/svg">
<g filter="url(#filter0_d_2132_3376)">
<mask id="path-1-inside-1_2132_3376" fill="white">
<path d="M293.69 239.188L260.871 270.944L261.185 12L293.69 239.188Z"/>
</mask>
<path d="M293.69 239.188L297.167 242.781L299.001 241.006L298.64 238.479L293.69 239.188ZM260.871 270.944L255.871 270.938L255.857 282.754L264.348 274.538L260.871 270.944ZM261.185 12L266.135 11.2918L256.185 11.9939L261.185 12ZM293.69 239.188L290.213 235.594L257.394 267.351L260.871 270.944L264.348 274.538L297.167 242.781L293.69 239.188ZM260.871 270.944L265.871 270.95L266.185 12.0061L261.185 12L256.185 11.9939L255.871 270.938L260.871 270.944ZM261.185 12L256.236 12.7082L288.741 239.896L293.69 239.188L298.64 238.479L266.135 11.2918L261.185 12Z" fill="#B3AAAA" style="mix-blend-mode:luminosity" mask="url(#path-1-inside-1_2132_3376)"/>
<mask id="path-3-inside-2_2132_3376" fill="white">
<path d="M292.333 303.516L260.577 270.697L519.521 271.011L292.333 303.516Z"/>
</mask>
<path d="M292.333 303.516L288.74 306.993L290.515 308.827L293.042 308.466L292.333 303.516ZM260.577 270.697L260.583 265.697L248.767 265.682L256.983 274.174L260.577 270.697ZM519.521 271.011L520.229 275.961L519.527 266.011L519.521 271.011ZM292.333 303.516L295.927 300.039L264.17 267.22L260.577 270.697L256.983 274.174L288.74 306.993L292.333 303.516ZM260.577 270.697L260.57 275.697L519.515 276.011L519.521 271.011L519.527 266.011L260.583 265.697L260.577 270.697ZM519.521 271.011L518.813 266.062L291.625 298.567L292.333 303.516L293.042 308.466L520.229 275.961L519.521 271.011Z" fill="#B3AAAA" style="mix-blend-mode:luminosity" mask="url(#path-3-inside-2_2132_3376)"/>
<path d="M293.69 302.159L260.871 270.402L261.186 529.346L293.69 302.159Z" fill="white"/>
<path d="M240.188 303.516L271.944 270.697L13 271.011L240.188 303.516Z" fill="white"/>
<path d="M228.547 239.188L261.367 270.944L261.052 12L228.547 239.188Z" fill="white"/>
<path d="M292.333 238.373L260.577 271.192L519.521 270.878L292.333 238.373Z" fill="white"/>
<mask id="path-9-inside-3_2132_3376" fill="white">
<path d="M228.547 302.159L261.367 270.402L261.052 529.346L228.547 302.159Z"/>
</mask>
<path d="M228.547 302.159L225.071 298.566L223.236 300.341L223.598 302.867L228.547 302.159ZM261.367 270.402L266.367 270.408L266.381 258.593L257.89 266.809L261.367 270.402ZM261.052 529.346L256.103 530.055L266.052 529.353L261.052 529.346ZM228.547 302.159L232.024 305.752L264.844 273.995L261.367 270.402L257.89 266.809L225.071 298.566L228.547 302.159ZM261.367 270.402L256.367 270.396L256.052 529.34L261.052 529.346L266.052 529.353L266.367 270.408L261.367 270.402ZM261.052 529.346L266.002 528.638L233.497 301.451L228.547 302.159L223.598 302.867L256.103 530.055L261.052 529.346Z" fill="#B3AAAA" style="mix-blend-mode:luminosity" mask="url(#path-9-inside-3_2132_3376)"/>
<mask id="path-11-inside-4_2132_3376" fill="white">
<path d="M240.73 238.373L272.487 271.192L13.5428 270.878L240.73 238.373Z"/>
</mask>
<path d="M240.73 238.373L244.324 234.896L242.549 233.062L240.022 233.424L240.73 238.373ZM272.487 271.192L272.481 276.192L284.297 276.207L276.08 267.716L272.487 271.192ZM13.5428 270.878L12.8347 265.928L13.5368 275.878L13.5428 270.878ZM240.73 238.373L237.137 241.85L268.894 274.669L272.487 271.192L276.08 267.716L244.324 234.896L240.73 238.373ZM272.487 271.192L272.493 266.192L13.5489 265.878L13.5428 270.878L13.5368 275.878L272.481 276.192L272.487 271.192ZM13.5428 270.878L14.251 275.828L241.439 243.323L240.73 238.373L240.022 233.424L12.8347 265.928L13.5428 270.878Z" fill="#B3AAAA" style="mix-blend-mode:luminosity" mask="url(#path-11-inside-4_2132_3376)"/>
</g>
<defs>
<filter id="filter0_d_2132_3376" x="0" y="0" width="546.521" height="557.346" filterUnits="userSpaceOnUse" color-interpolation-filters="sRGB">
<feFlood flood-opacity="0" result="BackgroundImageFix"/>
<feColorMatrix in="SourceAlpha" type="matrix" values="0 0 0 0 0 0 0 0 0 0 0 0 0 0 0 0 0 0 127 0" result="hardAlpha"/>
<feOffset dx="7" dy="8"/>
<feGaussianBlur stdDeviation="10"/>
<feComposite in2="hardAlpha" operator="out"/>
<feColorMatrix type="matrix" values="0 0 0 0 0.169715 0 0 0 0 0.161269 0 0 0 0 0.161269 0 0 0 1 0"/>
<feBlend mode="normal" in2="BackgroundImageFix" result="effect1_dropShadow_2132_3376"/>
<feBlend mode="normal" in="SourceGraphic" in2="effect1_dropShadow_2132_3376" result="shape"/>
</filter>
</defs>
</svg>
