<svg width="1219" height="783" viewBox="0 0 1219 783" fill="none" xmlns="http://www.w3.org/2000/svg">
<mask id="mask0_2135_3429" style="mask-type:alpha" maskUnits="userSpaceOnUse" x="672" y="-20" width="592" height="524">
<rect x="1149.39" y="-19.6419" width="396.355" height="498.359" transform="rotate(73.2361 1149.39 -19.6419)" fill="url(#paint0_linear_2135_3429)"/>
</mask>
<g mask="url(#mask0_2135_3429)">
<path d="M941.004 401.034C863.689 424.324 782.133 380.528 758.843 303.213C735.554 225.898 779.35 144.342 856.665 121.052C933.98 97.7623 911.356 172.941 934.646 250.256C957.936 327.571 1018.32 377.745 941.004 401.034Z" fill="#251A66"/>
<g filter="url(#filter0_f_2135_3429)">
<path d="M938.212 401.875C878.364 419.903 810.967 371.841 787.677 294.526C764.388 217.211 794.024 139.921 853.873 121.892C913.721 103.864 981.118 151.926 1004.41 229.241C1027.7 306.556 998.061 383.847 938.212 401.875Z" fill="#251A66"/>
</g>
<g filter="url(#filter1_f_2135_3429)">
<ellipse cx="898.622" cy="260.202" rx="146.205" ry="113.175" transform="rotate(73.2361 898.622 260.202)" fill="#251A66"/>
</g>
<g filter="url(#filter2_f_2135_3429)">
<ellipse cx="913.973" cy="255.579" rx="146.205" ry="113.661" transform="rotate(73.2361 913.973 255.579)" fill="#251A66"/>
</g>
<g filter="url(#filter3_f_2135_3429)">
<ellipse cx="957.102" cy="241.709" rx="146.205" ry="113.175" transform="rotate(73.2361 957.102 241.709)" fill="#251A66"/>
</g>
<g filter="url(#filter4_f_2135_3429)">
<ellipse cx="1017.42" cy="222.936" rx="122.89" ry="113.175" transform="rotate(73.2361 1017.42 222.936)" fill="#251A66"/>
</g>
</g>
<mask id="mask1_2135_3429" style="mask-type:alpha" maskUnits="userSpaceOnUse" x="297" y="-91" width="638" height="817">
<path d="M297.432 725.571L511.902 -90.1938L934.065 185.277L899.682 599.609L297.432 725.571Z" fill="url(#paint1_linear_2135_3429)"/>
</mask>
<g mask="url(#mask1_2135_3429)">
<path d="M724.573 225.667C808.981 232.672 871.73 306.777 864.725 391.186C857.72 475.595 783.615 538.343 699.206 531.338C614.797 524.334 665.787 459.667 672.792 375.258C679.797 290.849 640.164 218.662 724.573 225.667Z" fill="#EC4A0A" fill-opacity="0.79"/>
<g filter="url(#filter5_f_2135_3429)">
<path d="M729.619 225.92C794.959 231.343 842.249 304.165 835.244 388.574C828.24 472.983 769.593 537.014 704.253 531.592C638.913 526.17 591.623 453.347 598.628 368.938C605.633 284.53 664.28 220.498 729.619 225.92Z" fill="#EC4A0A" fill-opacity="0.79"/>
</g>
<g filter="url(#filter6_f_2135_3429)">
<ellipse cx="710.845" cy="378.249" rx="153.361" ry="118.715" transform="rotate(-85.2562 710.845 378.249)" fill="#EC4A0A" fill-opacity="0.79"/>
</g>
<g filter="url(#filter7_f_2135_3429)">
<ellipse cx="694.086" cy="376.86" rx="153.361" ry="119.224" transform="rotate(-85.2562 694.086 376.86)" fill="#EC4A0A" fill-opacity="0.79"/>
</g>
<g filter="url(#filter8_f_2135_3429)">
<ellipse cx="648.732" cy="372.688" rx="153.361" ry="118.715" transform="rotate(-85.2562 648.732 372.688)" fill="#EC4A0A" fill-opacity="0.79"/>
</g>
<g filter="url(#filter9_f_2135_3429)">
<ellipse cx="580.693" cy="367.042" rx="128.905" ry="118.715" transform="rotate(-85.2562 580.693 367.042)" fill="#EC4A0A" fill-opacity="0.79"/>
</g>
</g>
<mask id="mask2_2135_3429" style="mask-type:alpha" maskUnits="userSpaceOnUse" x="303" y="-147" width="781" height="755">
<path d="M303.253 139.342L851.266 -146.287L1083.25 322.173L535.235 607.802L303.253 139.342Z" fill="url(#paint2_linear_2135_3429)"/>
</mask>
<g mask="url(#mask2_2135_3429)">
<path d="M872.189 232.209C909.776 308.112 878.715 400.113 802.813 437.7C726.911 475.287 634.91 444.226 597.323 368.324C559.736 292.421 641.444 302.696 717.346 265.109C793.248 227.522 834.602 156.307 872.189 232.209Z" fill="#251A66"/>
<g filter="url(#filter10_f_2135_3429)">
<path d="M874.489 234.947C903.585 293.702 865.64 371.803 789.738 409.39C713.836 446.976 628.718 429.816 599.623 371.062C570.527 312.307 608.472 234.206 684.374 196.619C760.276 159.032 845.394 176.192 874.489 234.947Z" fill="#251A66"/>
</g>
<g filter="url(#filter11_f_2135_3429)">
<ellipse cx="736.313" cy="297.526" rx="153.361" ry="118.715" transform="rotate(-26.3447 736.313 297.526)" fill="#251A66"/>
</g>
<g filter="url(#filter12_f_2135_3429)">
<ellipse cx="728.853" cy="282.46" rx="153.361" ry="119.224" transform="rotate(-26.3447 728.853 282.46)" fill="#251A66"/>
</g>
<g filter="url(#filter13_f_2135_3429)">
<ellipse cx="708.468" cy="237.256" rx="153.361" ry="118.715" transform="rotate(-26.3447 708.468 237.256)" fill="#251A66"/>
</g>
<g filter="url(#filter14_f_2135_3429)">
<ellipse cx="678.17" cy="176.074" rx="128.905" ry="118.715" transform="rotate(-26.3447 678.17 176.074)" fill="#251A66"/>
</g>
</g>
<mask id="mask3_2135_3429" style="mask-type:alpha" maskUnits="userSpaceOnUse" x="686" y="213" width="637" height="613">
<rect x="1322.59" y="502.178" width="396.356" height="498.359" transform="rotate(125.402 1322.59 502.178)" fill="url(#paint3_linear_2135_3429)"/>
</mask>
<g mask="url(#mask3_2135_3429)">
<path d="M863.018 596.265C797.201 549.488 781.766 458.212 828.543 392.395C875.32 326.578 966.596 311.143 1032.41 357.92C1098.23 404.697 1024.98 432.942 978.202 498.759C931.425 564.577 928.836 643.042 863.018 596.265Z" fill="#EC4A0A" fill-opacity="0.76"/>
<g filter="url(#filter15_f_2135_3429)">
<path d="M859.103 593.959C808.155 557.75 804.773 475.041 851.551 409.223C898.328 343.406 977.55 319.404 1028.5 355.614C1079.45 391.823 1082.83 474.532 1036.05 540.35C989.274 606.167 910.051 630.169 859.103 593.959Z" fill="#EC4A0A" fill-opacity="0.76"/>
</g>
<g filter="url(#filter16_f_2135_3429)">
<ellipse cx="944.609" cy="478.162" rx="146.205" ry="113.175" transform="rotate(125.402 944.609 478.162)" fill="#EC4A0A" fill-opacity="0.76"/>
</g>
<g filter="url(#filter17_f_2135_3429)">
<ellipse cx="953.734" cy="487.45" rx="146.205" ry="113.661" transform="rotate(125.402 953.734 487.45)" fill="#EC4A0A" fill-opacity="0.76"/>
</g>
<g filter="url(#filter18_f_2135_3429)">
<ellipse cx="995.93" cy="515.306" rx="146.205" ry="113.175" transform="rotate(125.402 995.93 515.306)" fill="#EC4A0A" fill-opacity="0.76"/>
</g>
<g filter="url(#filter19_f_2135_3429)">
<ellipse cx="1042.06" cy="553.012" rx="122.89" ry="113.175" transform="rotate(125.402 1042.06 553.012)" fill="#EC4A0A" fill-opacity="0.76"/>
</g>
</g>
<mask id="mask4_2135_3429" style="mask-type:alpha" maskUnits="userSpaceOnUse" x="672" y="342" width="434" height="528">
<rect x="1068.23" y="869.41" width="396.355" height="498.359" transform="rotate(-175.687 1068.23 869.41)" fill="url(#paint4_linear_2135_3429)"/>
</mask>
<g mask="url(#mask4_2135_3429)">
<path d="M746.781 520.112C752.854 439.594 823.05 379.245 903.568 385.318C984.086 391.391 1044.44 461.586 1038.36 542.104C1032.29 622.622 970.277 574.476 889.759 568.404C809.241 562.331 740.708 600.63 746.781 520.112Z" fill="#EC4A0A" fill-opacity="0.76"/>
<g filter="url(#filter20_f_2135_3429)">
<path d="M747 517.206C751.701 454.878 820.785 409.274 901.303 415.347C981.82 421.42 1043.28 476.87 1038.58 539.198C1033.88 601.526 964.797 647.129 884.279 641.056C803.761 634.983 742.299 579.534 747 517.206Z" fill="#EC4A0A" fill-opacity="0.76"/>
</g>
<g filter="url(#filter21_f_2135_3429)">
<ellipse cx="892.353" cy="534.015" rx="146.205" ry="113.175" transform="rotate(-175.687 892.353 534.015)" fill="#EC4A0A" fill-opacity="0.76"/>
</g>
<g filter="url(#filter22_f_2135_3429)">
<ellipse cx="890.637" cy="549.381" rx="146.205" ry="113.661" transform="rotate(-175.687 890.637 549.381)" fill="#EC4A0A" fill-opacity="0.76"/>
</g>
<g filter="url(#filter23_f_2135_3429)">
<ellipse cx="887.02" cy="597.333" rx="146.205" ry="113.175" transform="rotate(-175.687 887.02 597.333)" fill="#EC4A0A" fill-opacity="0.76"/>
</g>
<g filter="url(#filter24_f_2135_3429)">
<ellipse cx="879.125" cy="662.236" rx="122.89" ry="113.175" transform="rotate(-175.687 879.125 662.236)" fill="#EC4A0A" fill-opacity="0.76"/>
</g>
</g>
<circle cx="838.189" cy="392.456" r="96.3342" stroke="#251A66" stroke-width="3"/>
<circle cx="838.989" cy="392.456" r="168.589" stroke="#251A66" stroke-width="3"/>
<circle opacity="0.4" cx="843.902" cy="392.456" r="252.886" stroke="#251A66" stroke-width="3"/>
<circle opacity="0.2" cx="848.815" cy="392.456" r="331.915" stroke="#251A66" stroke-width="3"/>
<path d="M850.408 56.0009H842.148L823.445 27.7399V56.0009H815.185V14.7599H823.445L842.148 43.0799V14.7599H850.408V56.0009Z" fill="#251A66" style="mix-blend-mode:hard-light"/>
<path d="M829.404 770.025C826.533 770.025 823.937 769.533 821.616 768.55C819.335 767.566 817.525 766.15 816.188 764.302C814.851 762.453 814.162 760.27 814.123 757.753H822.973C823.091 759.444 823.681 760.781 824.743 761.765C825.844 762.748 827.339 763.24 829.227 763.24C831.154 763.24 832.669 762.787 833.77 761.883C834.871 760.939 835.422 759.719 835.422 758.225C835.422 757.005 835.048 756.002 834.301 755.216C833.554 754.429 832.61 753.819 831.469 753.387C830.368 752.915 828.834 752.403 826.867 751.853C824.192 751.066 822.009 750.299 820.318 749.552C818.666 748.765 817.23 747.605 816.011 746.071C814.831 744.497 814.241 742.413 814.241 739.817C814.241 737.378 814.851 735.254 816.07 733.445C817.289 731.635 819 730.259 821.203 729.315C823.406 728.331 825.923 727.84 828.755 727.84C833.003 727.84 836.445 728.882 839.08 730.967C841.755 733.012 843.23 735.883 843.505 739.581H834.419C834.34 738.165 833.731 737.004 832.59 736.1C831.489 735.156 830.014 734.684 828.165 734.684C826.552 734.684 825.254 735.097 824.271 735.923C823.327 736.749 822.855 737.948 822.855 739.522C822.855 740.623 823.209 741.547 823.917 742.295C824.664 743.003 825.569 743.593 826.631 744.065C827.732 744.497 829.266 745.009 831.233 745.599C833.908 746.385 836.091 747.172 837.782 747.959C839.473 748.745 840.929 749.925 842.148 751.499C843.367 753.072 843.977 755.137 843.977 757.694C843.977 759.896 843.407 761.942 842.266 763.83C841.125 765.718 839.454 767.232 837.251 768.373C835.048 769.474 832.433 770.025 829.404 770.025Z" fill="#251A66" style="mix-blend-mode:hard-light"/>
<path d="M1179.49 381.269V391.594H1193.36V398.143H1179.49V409.058H1195.13V415.784H1171.23V374.543H1195.13V381.269H1179.49Z" fill="#251A66" style="mix-blend-mode:hard-light"/>
<path d="M512.434 385.443L500.929 426.625H491.194L483.465 397.302L475.382 426.625L465.706 426.684L454.614 385.443H463.464L470.721 417.421L479.099 385.443H488.303L496.209 417.244L503.525 385.443H512.434Z" fill="#251A66" style="mix-blend-mode:hard-light"/>
<g filter="url(#filter25_d_2135_3429)">
<mask id="path-44-inside-1_2135_3429" fill="white">
<path d="M863.933 357.114L831.114 388.871L831.429 129.927L863.933 357.114Z"/>
</mask>
<path d="M863.933 357.114L867.41 360.707L869.245 358.933L868.883 356.406L863.933 357.114ZM831.114 388.871L826.114 388.865L826.1 400.681L834.591 392.464L831.114 388.871ZM831.429 129.927L836.378 129.219L826.429 129.921L831.429 129.927ZM863.933 357.114L860.457 353.521L827.637 385.278L831.114 388.871L834.591 392.464L867.41 360.707L863.933 357.114ZM831.114 388.871L836.114 388.877L836.429 129.933L831.429 129.927L826.429 129.921L826.114 388.865L831.114 388.871ZM831.429 129.927L826.479 130.635L858.984 357.822L863.933 357.114L868.883 356.406L836.378 129.219L831.429 129.927Z" fill="#B3AAAA" style="mix-blend-mode:luminosity" mask="url(#path-44-inside-1_2135_3429)"/>
<mask id="path-46-inside-2_2135_3429" fill="white">
<path d="M862.577 421.443L830.82 388.624L1089.76 388.938L862.577 421.443Z"/>
</mask>
<path d="M862.577 421.443L858.983 424.92L860.758 426.754L863.285 426.392L862.577 421.443ZM830.82 388.624L830.826 383.624L819.01 383.609L827.227 392.1L830.82 388.624ZM1089.76 388.938L1090.47 393.888L1089.77 383.938L1089.76 388.938ZM862.577 421.443L866.17 417.966L834.413 385.147L830.82 388.624L827.227 392.1L858.983 424.92L862.577 421.443ZM830.82 388.624L830.814 393.624L1089.76 393.938L1089.76 388.938L1089.77 383.938L830.826 383.624L830.82 388.624ZM1089.76 388.938L1089.06 383.988L861.868 416.493L862.577 421.443L863.285 426.392L1090.47 393.888L1089.76 388.938Z" fill="#B3AAAA" style="mix-blend-mode:luminosity" mask="url(#path-46-inside-2_2135_3429)"/>
<path d="M863.934 420.086L831.114 388.329L831.429 647.273L863.934 420.086Z" fill="white"/>
<path d="M810.431 421.443L842.188 388.624L583.243 388.938L810.431 421.443Z" fill="white"/>
<path d="M798.791 357.114L831.61 388.871L831.296 129.927L798.791 357.114Z" fill="white"/>
<path d="M862.577 356.3L830.82 389.119L1089.76 388.805L862.577 356.3Z" fill="white"/>
<mask id="path-52-inside-3_2135_3429" fill="white">
<path d="M798.791 420.086L831.61 388.329L831.296 647.273L798.791 420.086Z"/>
</mask>
<path d="M798.791 420.086L795.314 416.492L793.48 418.267L793.841 420.794L798.791 420.086ZM831.61 388.329L836.61 388.335L836.624 376.519L828.133 384.736L831.61 388.329ZM831.296 647.273L826.346 647.981L836.296 647.279L831.296 647.273ZM798.791 420.086L802.268 423.679L835.087 391.922L831.61 388.329L828.133 384.736L795.314 416.492L798.791 420.086ZM831.61 388.329L826.61 388.323L826.296 647.267L831.296 647.273L836.296 647.279L836.61 388.335L831.61 388.329ZM831.296 647.273L836.245 646.565L803.74 419.378L798.791 420.086L793.841 420.794L826.346 647.981L831.296 647.273Z" fill="#B3AAAA" style="mix-blend-mode:luminosity" mask="url(#path-52-inside-3_2135_3429)"/>
<mask id="path-54-inside-4_2135_3429" fill="white">
<path d="M810.974 356.3L842.73 389.119L583.786 388.805L810.974 356.3Z"/>
</mask>
<path d="M810.974 356.3L814.567 352.823L812.792 350.989L810.265 351.35L810.974 356.3ZM842.73 389.119L842.724 394.119L854.54 394.134L846.324 385.642L842.73 389.119ZM583.786 388.805L583.078 383.855L583.78 393.805L583.786 388.805ZM810.974 356.3L807.38 359.777L839.137 392.596L842.73 389.119L846.324 385.642L814.567 352.823L810.974 356.3ZM842.73 389.119L842.737 384.119L583.792 383.805L583.786 388.805L583.78 393.805L842.724 394.119L842.73 389.119ZM583.786 388.805L584.494 393.754L811.682 361.249L810.974 356.3L810.265 351.35L583.078 383.855L583.786 388.805Z" fill="#B3AAAA" style="mix-blend-mode:luminosity" mask="url(#path-54-inside-4_2135_3429)"/>
</g>
<g filter="url(#filter26_d_2135_3429)">
<mask id="path-56-inside-5_2135_3429" fill="white">
<path d="M837.754 355.317L837.948 388.428L702.425 258.502L837.754 355.317Z"/>
</mask>
<path d="M837.754 355.317L842.754 355.288L842.739 352.736L840.663 351.251L837.754 355.317ZM837.948 388.428L834.488 392.037L843.017 400.214L842.948 388.399L837.948 388.428ZM702.425 258.502L705.334 254.436L698.965 262.112L702.425 258.502ZM837.754 355.317L832.754 355.347L832.948 388.457L837.948 388.428L842.948 388.399L842.754 355.288L837.754 355.317ZM837.948 388.428L841.408 384.819L705.885 254.893L702.425 258.502L698.965 262.112L834.488 392.037L837.948 388.428ZM702.425 258.502L699.516 262.569L834.845 359.384L837.754 355.317L840.663 351.251L705.334 254.436L702.425 258.502Z" fill="#B3AAAA" style="mix-blend-mode:luminosity" mask="url(#path-56-inside-5_2135_3429)"/>
<mask id="path-58-inside-6_2135_3429" fill="white">
<path d="M864.868 388.265L831.758 388.459L961.683 252.935L864.868 388.265Z"/>
</mask>
<path d="M864.868 388.265L864.897 393.265L867.449 393.25L868.934 391.174L864.868 388.265ZM831.758 388.459L828.148 384.998L819.972 393.527L831.787 393.458L831.758 388.459ZM961.683 252.935L965.75 255.845L958.074 249.475L961.683 252.935ZM864.868 388.265L864.839 383.265L831.728 383.459L831.758 388.459L831.787 393.458L864.897 393.265L864.868 388.265ZM831.758 388.459L835.367 391.919L965.293 256.396L961.683 252.935L958.074 249.475L828.148 384.998L831.758 388.459ZM961.683 252.935L957.617 250.026L860.801 385.356L864.868 388.265L868.934 391.174L965.75 255.845L961.683 252.935Z" fill="#B3AAAA" style="mix-blend-mode:luminosity" mask="url(#path-58-inside-6_2135_3429)"/>
<path d="M864.837 386.874L831.751 388.157L967.588 517.753L864.837 386.874Z" fill="white"/>
<path d="M839.224 421.261L837.942 388.174L708.345 524.012L839.224 421.261Z" fill="white"/>
<path d="M805.111 389.451L838.197 388.168L702.359 258.571L805.111 389.451Z" fill="white"/>
<path d="M830.735 355.62L832.018 388.707L961.614 252.869L830.735 355.62Z" fill="white"/>
<mask id="path-64-inside-7_2135_3429" fill="white">
<path d="M832.193 421.007L832 387.897L967.523 517.822L832.193 421.007Z"/>
</mask>
<path d="M832.193 421.007L827.193 421.036L827.208 423.588L829.284 425.073L832.193 421.007ZM832 387.897L835.46 384.287L826.931 376.11L827 387.926L832 387.897ZM967.523 517.822L964.613 521.889L970.983 514.213L967.523 517.822ZM832.193 421.007L837.193 420.978L837 387.867L832 387.897L827 387.926L827.193 421.036L832.193 421.007ZM832 387.897L828.539 391.506L964.062 521.432L967.523 517.822L970.983 514.213L835.46 384.287L832 387.897ZM967.523 517.822L970.432 513.756L835.102 416.94L832.193 421.007L829.284 425.073L964.613 521.889L967.523 517.822Z" fill="#B3AAAA" style="mix-blend-mode:luminosity" mask="url(#path-64-inside-7_2135_3429)"/>
<mask id="path-66-inside-8_2135_3429" fill="white">
<path d="M805.364 388.332L838.474 388.138L708.549 523.662L805.364 388.332Z"/>
</mask>
<path d="M805.364 388.332L805.335 383.332L802.783 383.347L801.298 385.423L805.364 388.332ZM838.474 388.138L842.084 391.599L850.261 383.07L838.445 383.139L838.474 388.138ZM708.549 523.662L704.482 520.752L712.158 527.122L708.549 523.662ZM805.364 388.332L805.393 393.332L838.504 393.138L838.474 388.138L838.445 383.139L805.335 383.332L805.364 388.332ZM838.474 388.138L834.865 384.678L704.939 520.201L708.549 523.662L712.158 527.122L842.084 391.599L838.474 388.138ZM708.549 523.662L712.615 526.571L809.431 391.241L805.364 388.332L801.298 385.423L704.482 520.752L708.549 523.662Z" fill="#B3AAAA" style="mix-blend-mode:luminosity" mask="url(#path-66-inside-8_2135_3429)"/>
</g>
<defs>
<filter id="filter0_f_2135_3429" x="775.73" y="114.105" width="240.625" height="295.558" filterUnits="userSpaceOnUse" color-interpolation-filters="sRGB">
<feFlood flood-opacity="0" result="BackgroundImageFix"/>
<feBlend mode="normal" in="SourceGraphic" in2="BackgroundImageFix" result="shape"/>
<feGaussianBlur stdDeviation="2" result="effect1_foregroundBlur_2135_3429"/>
</filter>
<filter id="filter1_f_2135_3429" x="768.31" y="102.424" width="260.625" height="315.558" filterUnits="userSpaceOnUse" color-interpolation-filters="sRGB">
<feFlood flood-opacity="0" result="BackgroundImageFix"/>
<feBlend mode="normal" in="SourceGraphic" in2="BackgroundImageFix" result="shape"/>
<feGaussianBlur stdDeviation="7" result="effect1_foregroundBlur_2135_3429"/>
</filter>
<filter id="filter2_f_2135_3429" x="763.227" y="77.7682" width="301.492" height="355.622" filterUnits="userSpaceOnUse" color-interpolation-filters="sRGB">
<feFlood flood-opacity="0" result="BackgroundImageFix"/>
<feBlend mode="normal" in="SourceGraphic" in2="BackgroundImageFix" result="shape"/>
<feGaussianBlur stdDeviation="17" result="effect1_foregroundBlur_2135_3429"/>
</filter>
<filter id="filter3_f_2135_3429" x="766.79" y="23.9305" width="380.625" height="435.558" filterUnits="userSpaceOnUse" color-interpolation-filters="sRGB">
<feFlood flood-opacity="0" result="BackgroundImageFix"/>
<feBlend mode="normal" in="SourceGraphic" in2="BackgroundImageFix" result="shape"/>
<feGaussianBlur stdDeviation="37" result="effect1_foregroundBlur_2135_3429"/>
</filter>
<filter id="filter4_f_2135_3429" x="773.378" y="-29.2057" width="488.091" height="504.284" filterUnits="userSpaceOnUse" color-interpolation-filters="sRGB">
<feFlood flood-opacity="0" result="BackgroundImageFix"/>
<feBlend mode="normal" in="SourceGraphic" in2="BackgroundImageFix" result="shape"/>
<feGaussianBlur stdDeviation="65" result="effect1_foregroundBlur_2135_3429"/>
</filter>
<filter id="filter5_f_2135_3429" x="591.323" y="218.983" width="251.226" height="319.547" filterUnits="userSpaceOnUse" color-interpolation-filters="sRGB">
<feFlood flood-opacity="0" result="BackgroundImageFix"/>
<feBlend mode="normal" in="SourceGraphic" in2="BackgroundImageFix" result="shape"/>
<feGaussianBlur stdDeviation="3.30857" result="effect1_foregroundBlur_2135_3429"/>
</filter>
<filter id="filter6_f_2135_3429" x="568.689" y="201.933" width="284.312" height="352.632" filterUnits="userSpaceOnUse" color-interpolation-filters="sRGB">
<feFlood flood-opacity="0" result="BackgroundImageFix"/>
<feBlend mode="normal" in="SourceGraphic" in2="BackgroundImageFix" result="shape"/>
<feGaussianBlur stdDeviation="11.58" result="effect1_foregroundBlur_2135_3429"/>
</filter>
<filter id="filter7_f_2135_3429" x="518.34" y="167.456" width="351.493" height="418.809" filterUnits="userSpaceOnUse" color-interpolation-filters="sRGB">
<feFlood flood-opacity="0" result="BackgroundImageFix"/>
<feBlend mode="normal" in="SourceGraphic" in2="BackgroundImageFix" result="shape"/>
<feGaussianBlur stdDeviation="28.1228" result="effect1_foregroundBlur_2135_3429"/>
</filter>
<filter id="filter8_f_2135_3429" x="407.319" y="97.1148" width="482.826" height="551.146" filterUnits="userSpaceOnUse" color-interpolation-filters="sRGB">
<feFlood flood-opacity="0" result="BackgroundImageFix"/>
<feBlend mode="normal" in="SourceGraphic" in2="BackgroundImageFix" result="shape"/>
<feGaussianBlur stdDeviation="61.2085" result="effect1_foregroundBlur_2135_3429"/>
</filter>
<filter id="filter9_f_2135_3429" x="246.841" y="23.1408" width="667.704" height="687.802" filterUnits="userSpaceOnUse" color-interpolation-filters="sRGB">
<feFlood flood-opacity="0" result="BackgroundImageFix"/>
<feBlend mode="normal" in="SourceGraphic" in2="BackgroundImageFix" result="shape"/>
<feGaussianBlur stdDeviation="107.528" result="effect1_foregroundBlur_2135_3429"/>
</filter>
<filter id="filter10_f_2135_3429" x="583.215" y="170.08" width="307.683" height="265.849" filterUnits="userSpaceOnUse" color-interpolation-filters="sRGB">
<feFlood flood-opacity="0" result="BackgroundImageFix"/>
<feBlend mode="normal" in="SourceGraphic" in2="BackgroundImageFix" result="shape"/>
<feGaussianBlur stdDeviation="3.30857" result="effect1_foregroundBlur_2135_3429"/>
</filter>
<filter id="filter11_f_2135_3429" x="565.929" y="148.059" width="340.768" height="298.934" filterUnits="userSpaceOnUse" color-interpolation-filters="sRGB">
<feFlood flood-opacity="0" result="BackgroundImageFix"/>
<feBlend mode="normal" in="SourceGraphic" in2="BackgroundImageFix" result="shape"/>
<feGaussianBlur stdDeviation="11.58" result="effect1_foregroundBlur_2135_3429"/>
</filter>
<filter id="filter12_f_2135_3429" x="525.302" y="99.5218" width="407.102" height="365.876" filterUnits="userSpaceOnUse" color-interpolation-filters="sRGB">
<feFlood flood-opacity="0" result="BackgroundImageFix"/>
<feBlend mode="normal" in="SourceGraphic" in2="BackgroundImageFix" result="shape"/>
<feGaussianBlur stdDeviation="28.1228" result="effect1_foregroundBlur_2135_3429"/>
</filter>
<filter id="filter13_f_2135_3429" x="438.827" y="-11.4678" width="539.282" height="497.448" filterUnits="userSpaceOnUse" color-interpolation-filters="sRGB">
<feFlood flood-opacity="0" result="BackgroundImageFix"/>
<feBlend mode="normal" in="SourceGraphic" in2="BackgroundImageFix" result="shape"/>
<feGaussianBlur stdDeviation="61.2085" result="effect1_foregroundBlur_2135_3429"/>
</filter>
<filter id="filter14_f_2135_3429" x="336.119" y="-159.796" width="684.101" height="671.74" filterUnits="userSpaceOnUse" color-interpolation-filters="sRGB">
<feFlood flood-opacity="0" result="BackgroundImageFix"/>
<feBlend mode="normal" in="SourceGraphic" in2="BackgroundImageFix" result="shape"/>
<feGaussianBlur stdDeviation="107.528" result="effect1_foregroundBlur_2135_3429"/>
</filter>
<filter id="filter15_f_2135_3429" x="814.565" y="334.744" width="258.471" height="280.085" filterUnits="userSpaceOnUse" color-interpolation-filters="sRGB">
<feFlood flood-opacity="0" result="BackgroundImageFix"/>
<feBlend mode="normal" in="SourceGraphic" in2="BackgroundImageFix" result="shape"/>
<feGaussianBlur stdDeviation="2" result="effect1_foregroundBlur_2135_3429"/>
</filter>
<filter id="filter16_f_2135_3429" x="805.374" y="328.12" width="278.471" height="300.085" filterUnits="userSpaceOnUse" color-interpolation-filters="sRGB">
<feFlood flood-opacity="0" result="BackgroundImageFix"/>
<feBlend mode="normal" in="SourceGraphic" in2="BackgroundImageFix" result="shape"/>
<feGaussianBlur stdDeviation="7" result="effect1_foregroundBlur_2135_3429"/>
</filter>
<filter id="filter17_f_2135_3429" x="794.207" y="317.272" width="319.055" height="340.356" filterUnits="userSpaceOnUse" color-interpolation-filters="sRGB">
<feFlood flood-opacity="0" result="BackgroundImageFix"/>
<feBlend mode="normal" in="SourceGraphic" in2="BackgroundImageFix" result="shape"/>
<feGaussianBlur stdDeviation="17" result="effect1_foregroundBlur_2135_3429"/>
</filter>
<filter id="filter18_f_2135_3429" x="796.694" y="305.263" width="398.471" height="420.085" filterUnits="userSpaceOnUse" color-interpolation-filters="sRGB">
<feFlood flood-opacity="0" result="BackgroundImageFix"/>
<feBlend mode="normal" in="SourceGraphic" in2="BackgroundImageFix" result="shape"/>
<feGaussianBlur stdDeviation="37" result="effect1_foregroundBlur_2135_3429"/>
</filter>
<filter id="filter19_f_2135_3429" x="795.524" y="303.281" width="493.062" height="499.462" filterUnits="userSpaceOnUse" color-interpolation-filters="sRGB">
<feFlood flood-opacity="0" result="BackgroundImageFix"/>
<feBlend mode="normal" in="SourceGraphic" in2="BackgroundImageFix" result="shape"/>
<feGaussianBlur stdDeviation="65" result="effect1_foregroundBlur_2135_3429"/>
</filter>
<filter id="filter20_f_2135_3429" x="742.747" y="410.805" width="300.086" height="234.794" filterUnits="userSpaceOnUse" color-interpolation-filters="sRGB">
<feFlood flood-opacity="0" result="BackgroundImageFix"/>
<feBlend mode="normal" in="SourceGraphic" in2="BackgroundImageFix" result="shape"/>
<feGaussianBlur stdDeviation="2" result="effect1_foregroundBlur_2135_3429"/>
</filter>
<filter id="filter21_f_2135_3429" x="732.31" y="406.618" width="320.086" height="254.794" filterUnits="userSpaceOnUse" color-interpolation-filters="sRGB">
<feFlood flood-opacity="0" result="BackgroundImageFix"/>
<feBlend mode="normal" in="SourceGraphic" in2="BackgroundImageFix" result="shape"/>
<feGaussianBlur stdDeviation="7" result="effect1_foregroundBlur_2135_3429"/>
</filter>
<filter id="filter22_f_2135_3429" x="710.591" y="401.502" width="360.091" height="295.758" filterUnits="userSpaceOnUse" color-interpolation-filters="sRGB">
<feFlood flood-opacity="0" result="BackgroundImageFix"/>
<feBlend mode="normal" in="SourceGraphic" in2="BackgroundImageFix" result="shape"/>
<feGaussianBlur stdDeviation="17" result="effect1_foregroundBlur_2135_3429"/>
</filter>
<filter id="filter23_f_2135_3429" x="666.977" y="409.935" width="440.086" height="374.794" filterUnits="userSpaceOnUse" color-interpolation-filters="sRGB">
<feFlood flood-opacity="0" result="BackgroundImageFix"/>
<feBlend mode="normal" in="SourceGraphic" in2="BackgroundImageFix" result="shape"/>
<feGaussianBlur stdDeviation="37" result="effect1_foregroundBlur_2135_3429"/>
</filter>
<filter id="filter24_f_2135_3429" x="626.283" y="418.998" width="505.684" height="486.477" filterUnits="userSpaceOnUse" color-interpolation-filters="sRGB">
<feFlood flood-opacity="0" result="BackgroundImageFix"/>
<feBlend mode="normal" in="SourceGraphic" in2="BackgroundImageFix" result="shape"/>
<feGaussianBlur stdDeviation="65" result="effect1_foregroundBlur_2135_3429"/>
</filter>
<filter id="filter25_d_2135_3429" x="570.243" y="117.927" width="546.521" height="557.346" filterUnits="userSpaceOnUse" color-interpolation-filters="sRGB">
<feFlood flood-opacity="0" result="BackgroundImageFix"/>
<feColorMatrix in="SourceAlpha" type="matrix" values="0 0 0 0 0 0 0 0 0 0 0 0 0 0 0 0 0 0 127 0" result="hardAlpha"/>
<feOffset dx="7" dy="8"/>
<feGaussianBlur stdDeviation="10"/>
<feComposite in2="hardAlpha" operator="out"/>
<feColorMatrix type="matrix" values="0 0 0 0 0.169715 0 0 0 0 0.161269 0 0 0 0 0.161269 0 0 0 1 0"/>
<feBlend mode="normal" in2="BackgroundImageFix" result="effect1_dropShadow_2135_3429"/>
<feBlend mode="normal" in="SourceGraphic" in2="effect1_dropShadow_2135_3429" result="shape"/>
</filter>
<filter id="filter26_d_2135_3429" x="689.359" y="240.869" width="305.23" height="311.143" filterUnits="userSpaceOnUse" color-interpolation-filters="sRGB">
<feFlood flood-opacity="0" result="BackgroundImageFix"/>
<feColorMatrix in="SourceAlpha" type="matrix" values="0 0 0 0 0 0 0 0 0 0 0 0 0 0 0 0 0 0 127 0" result="hardAlpha"/>
<feOffset dx="7" dy="8"/>
<feGaussianBlur stdDeviation="10"/>
<feComposite in2="hardAlpha" operator="out"/>
<feColorMatrix type="matrix" values="0 0 0 0 0.169715 0 0 0 0 0.161269 0 0 0 0 0.161269 0 0 0 1 0"/>
<feBlend mode="normal" in2="BackgroundImageFix" result="effect1_dropShadow_2135_3429"/>
<feBlend mode="normal" in="SourceGraphic" in2="effect1_dropShadow_2135_3429" result="shape"/>
</filter>
<linearGradient id="paint0_linear_2135_3429" x1="1440.34" y1="377.199" x2="1440.34" y2="-19.6419" gradientUnits="userSpaceOnUse">
<stop stop-color="white"/>
<stop offset="1" stop-color="white" stop-opacity="0"/>
</linearGradient>
<linearGradient id="paint1_linear_2135_3429" x1="818.799" y1="286.654" x2="403.959" y2="252.228" gradientUnits="userSpaceOnUse">
<stop stop-color="white"/>
<stop offset="1" stop-color="white" stop-opacity="0"/>
</linearGradient>
<linearGradient id="paint2_linear_2135_3429" x1="873.568" y1="328.543" x2="688.841" y2="-44.4897" gradientUnits="userSpaceOnUse">
<stop stop-color="white"/>
<stop offset="1" stop-color="white" stop-opacity="0"/>
</linearGradient>
<linearGradient id="paint3_linear_2135_3429" x1="1613.54" y1="899.019" x2="1613.54" y2="502.178" gradientUnits="userSpaceOnUse">
<stop stop-color="white"/>
<stop offset="1" stop-color="white" stop-opacity="0"/>
</linearGradient>
<linearGradient id="paint4_linear_2135_3429" x1="1359.18" y1="1266.25" x2="1359.18" y2="869.41" gradientUnits="userSpaceOnUse">
<stop stop-color="white"/>
<stop offset="1" stop-color="white" stop-opacity="0"/>
</linearGradient>
</defs>
</svg>
