<svg width="110" height="110" viewBox="0 0 110 110" fill="none" xmlns="http://www.w3.org/2000/svg">
<path d="M54.7871 10C52.6387 10 50.5037 10.7251 48.6641 12.041L42.9707 16.0156L36.418 16.875H36.3105L36.2031 16.9824C31.8257 17.9626 28.3748 21.4136 27.3945 25.791L27.2871 25.8984V26.0059L26.4277 32.666L22.4531 37.8223L22.3457 37.9297V38.0371C19.9421 41.8774 19.8347 46.8323 22.4531 50.498L26.5352 56.1914L27.6094 62.0996L16.5449 78.9648L13 84.2285H29.4355L33.4102 93.4668L35.8809 99.375L39.4258 94.0039L50.2754 77.6758C53.1892 78.8708 56.479 78.9783 59.2988 77.6758L70.1484 94.0039L73.6934 99.375L76.1641 93.4668L80.1387 84.2285H96.5742L93.0293 78.9648L82.2871 62.6367L83.1465 56.1914L87.1211 50.498L87.2285 50.3906V50.2832C89.6321 46.4429 89.7395 41.5955 87.1211 37.9297L83.1465 32.2363L81.8574 25.791H81.9648C81.9514 25.7105 81.8708 25.6567 81.8574 25.5762C81.2397 21.0779 77.6814 17.4255 73.1562 16.875H73.0488L66.6035 16.0156L60.9102 12.041C59.0706 10.7251 56.9355 10 54.7871 10ZM54.7871 16.9824C55.5793 16.9824 56.3582 17.2241 56.9355 17.627L63.0586 22.0312L63.8105 22.5684L64.6699 22.6758L72.1895 23.75H72.2969C73.8411 23.9246 74.9153 24.9988 75.0898 26.543V26.7578L76.4863 34.3848L76.5938 35.1367L77.1309 35.7812L81.5352 41.9043C82.3542 43.0457 82.4617 44.9792 81.4277 46.6309L76.5938 53.3984L76.4863 54.2578L75.4121 61.7773V61.8848C75.345 62.4487 75.157 62.9724 74.875 63.3887L74.6602 63.4961V63.6035C74.1633 64.1943 73.4785 64.5837 72.6191 64.6777H72.4043L64.5625 66.0742L63.7031 66.1816L63.0586 66.7188L56.9355 71.123C55.7942 71.9421 53.7532 72.0496 52.1016 71.0156L46.5156 66.7188L45.8711 66.1816L44.9043 66.0742L37.3848 65H37.2773C36.2166 64.8792 35.3975 64.3286 34.9141 63.4961C34.6992 63.1201 34.5381 62.677 34.4844 62.207V61.9922L33.0879 54.1504L32.9805 53.291L32.4434 52.6465L28.0391 46.5234C27.22 45.3821 27.1125 43.3411 28.1465 41.6895L32.4434 36.1035L32.9805 35.459L33.0879 34.4922L34.0547 27.2949C34.0681 27.2412 34.1487 27.2412 34.1621 27.1875C34.5918 25.509 35.9211 24.1797 37.5996 23.75C37.6533 23.7366 37.6533 23.656 37.707 23.6426L44.9043 22.6758L45.7637 22.5684L46.5156 22.0312L52.6387 17.627C53.2161 17.2241 53.9949 16.9824 54.7871 16.9824ZM78.5273 69.2969L83.791 77.3535H75.5195L74.6602 79.502L72.2969 84.9805L64.9922 73.8086L66.6035 72.627L73.3711 71.4453V71.5527C73.4517 71.5393 73.5054 71.4587 73.5859 71.4453C75.439 71.1902 77.1174 70.4114 78.5273 69.2969ZM31.0469 69.4043C32.5105 70.7202 34.377 71.6333 36.418 71.875C36.4583 71.875 36.4851 71.875 36.5254 71.875L43.0781 72.7344L44.582 73.916L37.2773 84.9805L34.9141 79.502L34.0547 77.3535H25.7832L31.0469 69.4043Z" fill="white"/>
<path fill-rule="evenodd" clip-rule="evenodd" d="M52.7057 33.6464C53.3609 31.6231 56.2134 31.6231 56.8685 33.6464L58.2846 38.0196H62.867C64.9871 38.0196 65.8685 40.7419 64.1534 41.9924L60.4461 44.6952L61.8621 49.0685C62.5173 51.0917 60.2095 52.7742 58.4944 51.5238L54.7871 48.8209L51.0798 51.5238C49.3647 52.7742 47.0569 51.0917 47.7121 49.0685L49.1281 44.6952L45.4209 41.9924C43.7057 40.7419 44.5872 38.0196 46.7072 38.0196H51.2897L52.7057 33.6464ZM54.7871 34.325L53.3711 38.6982C53.0781 39.6031 52.2378 40.2157 51.2897 40.2157H46.7072L50.4145 42.9185C51.1815 43.4777 51.5025 44.469 51.2095 45.3738L49.7935 49.7471L53.5007 47.0443C54.2678 46.485 55.3064 46.485 56.0735 47.0443L59.7808 49.7471L58.3647 45.3738C58.0717 44.469 58.3927 43.4777 59.1597 42.9185L62.867 40.2157H58.2846C57.3364 40.2157 56.4961 39.6031 56.2032 38.6982L54.7871 34.325Z" fill="white"/>
</svg>
