<svg width="525" height="525" viewBox="0 0 525 525" fill="none" xmlns="http://www.w3.org/2000/svg">
<g filter="url(#filter0_d_2132_3394)">
<mask id="path-1-inside-1_2132_3394" fill="white">
<path d="M265.123 229.223L265.318 262.334L129.794 132.408L265.123 229.223Z"/>
</mask>
<path d="M265.123 229.223L270.123 229.194L270.108 226.641L268.033 225.156L265.123 229.223ZM265.318 262.334L261.857 265.943L270.387 274.12L270.317 262.304L265.318 262.334ZM129.794 132.408L132.704 128.342L126.334 136.017L129.794 132.408ZM265.123 229.223L260.124 229.252L260.318 262.363L265.318 262.334L270.317 262.304L270.123 229.194L265.123 229.223ZM265.318 262.334L268.778 258.724L133.255 128.799L129.794 132.408L126.334 136.017L261.857 265.943L265.318 262.334ZM129.794 132.408L126.885 136.475L262.214 233.289L265.123 229.223L268.033 225.156L132.704 128.342L129.794 132.408Z" fill="#B3AAAA" style="mix-blend-mode:luminosity" mask="url(#path-1-inside-1_2132_3394)"/>
<mask id="path-3-inside-2_2132_3394" fill="white">
<path d="M292.238 262.171L259.127 262.364L389.053 126.841L292.238 262.171Z"/>
</mask>
<path d="M292.238 262.171L292.267 267.171L294.819 267.156L296.304 265.08L292.238 262.171ZM259.127 262.364L255.518 258.904L247.341 267.433L259.157 267.364L259.127 262.364ZM389.053 126.841L393.12 129.75L385.444 123.381L389.053 126.841ZM292.238 262.171L292.208 257.171L259.098 257.364L259.127 262.364L259.157 267.364L292.267 267.171L292.238 262.171ZM259.127 262.364L262.737 265.824L392.662 130.301L389.053 126.841L385.444 123.381L255.518 258.904L259.127 262.364ZM389.053 126.841L384.986 123.932L288.171 259.262L292.238 262.171L296.304 265.08L393.12 129.75L389.053 126.841Z" fill="#B3AAAA" style="mix-blend-mode:luminosity" mask="url(#path-3-inside-2_2132_3394)"/>
<path d="M292.206 260.779L259.12 262.062L394.958 391.659L292.206 260.779Z" fill="white"/>
<path d="M266.594 295.166L265.312 262.08L135.715 397.917L266.594 295.166Z" fill="white"/>
<path d="M232.48 263.356L265.566 262.074L129.729 132.477L232.48 263.356Z" fill="white"/>
<path d="M258.105 229.526L259.387 262.613L388.984 126.775L258.105 229.526Z" fill="white"/>
<mask id="path-9-inside-3_2132_3394" fill="white">
<path d="M259.563 294.912L259.369 261.802L394.892 391.728L259.563 294.912Z"/>
</mask>
<path d="M259.563 294.912L254.563 294.942L254.578 297.494L256.653 298.979L259.563 294.912ZM259.369 261.802L262.829 258.193L254.3 250.016L254.369 261.831L259.369 261.802ZM394.892 391.728L391.983 395.794L398.353 388.119L394.892 391.728ZM259.563 294.912L264.563 294.883L264.369 261.773L259.369 261.802L254.369 261.831L254.563 294.942L259.563 294.912ZM259.369 261.802L255.909 265.411L391.432 395.337L394.892 391.728L398.353 388.119L262.829 258.193L259.369 261.802ZM394.892 391.728L397.802 387.661L262.472 290.846L259.563 294.912L256.653 298.979L391.983 395.794L394.892 391.728Z" fill="#B3AAAA" style="mix-blend-mode:luminosity" mask="url(#path-9-inside-3_2132_3394)"/>
<mask id="path-11-inside-4_2132_3394" fill="white">
<path d="M232.734 262.237L265.844 262.044L135.918 397.567L232.734 262.237Z"/>
</mask>
<path d="M232.734 262.237L232.705 257.237L230.152 257.252L228.667 259.328L232.734 262.237ZM265.844 262.044L269.453 265.504L277.63 256.975L265.815 257.044L265.844 262.044ZM135.918 397.567L131.852 394.658L139.528 401.027L135.918 397.567ZM232.734 262.237L232.763 267.237L265.873 267.044L265.844 262.044L265.815 257.044L232.705 257.237L232.734 262.237ZM265.844 262.044L262.235 258.584L132.309 394.107L135.918 397.567L139.528 401.027L269.453 265.504L265.844 262.044ZM135.918 397.567L139.985 400.476L236.8 265.147L232.734 262.237L228.667 259.328L131.852 394.658L135.918 397.567Z" fill="#B3AAAA" style="mix-blend-mode:luminosity" mask="url(#path-11-inside-4_2132_3394)"/>
</g>
<defs>
<filter id="filter0_d_2132_3394" x="116.729" y="114.775" width="305.23" height="311.143" filterUnits="userSpaceOnUse" color-interpolation-filters="sRGB">
<feFlood flood-opacity="0" result="BackgroundImageFix"/>
<feColorMatrix in="SourceAlpha" type="matrix" values="0 0 0 0 0 0 0 0 0 0 0 0 0 0 0 0 0 0 127 0" result="hardAlpha"/>
<feOffset dx="7" dy="8"/>
<feGaussianBlur stdDeviation="10"/>
<feComposite in2="hardAlpha" operator="out"/>
<feColorMatrix type="matrix" values="0 0 0 0 0.169715 0 0 0 0 0.161269 0 0 0 0 0.161269 0 0 0 1 0"/>
<feBlend mode="normal" in2="BackgroundImageFix" result="effect1_dropShadow_2132_3394"/>
<feBlend mode="normal" in="SourceGraphic" in2="effect1_dropShadow_2132_3394" result="shape"/>
</filter>
</defs>
</svg>
